<svg width="37" height="38" viewBox="0 0 37 38" fill="none" xmlns="http://www.w3.org/2000/svg">
<path d="M18.9233 37.1534C15.9403 37.1534 13.2888 36.7462 10.9688 35.9318C8.65814 35.1269 6.70739 33.9384 5.11648 32.3665C3.52557 30.804 2.31818 28.8958 1.49432 26.642C0.670455 24.3883 0.253788 21.8125 0.244318 18.9148C0.253788 16.0833 0.675189 13.5312 1.50852 11.2585C2.34186 8.97633 3.55871 7.02557 5.15909 5.40625C6.75947 3.77746 8.71496 2.52746 11.0256 1.65625C13.3362 0.785037 15.964 0.34943 18.9091 0.34943C21.6837 0.34943 24.1411 0.770832 26.2812 1.61364C28.4309 2.45644 30.2443 3.63068 31.7216 5.13636C33.2083 6.63257 34.3305 8.38447 35.0881 10.392C35.8551 12.3902 36.2386 14.5587 36.2386 16.8977C36.2386 18.517 36.1155 20.0511 35.8693 21.5C35.6231 22.9394 35.2017 24.2178 34.6051 25.3352C34.018 26.4527 33.2178 27.3428 32.2045 28.0057C31.1913 28.6591 29.9223 29.0142 28.3977 29.071C27.4413 29.1184 26.6032 29.0284 25.8835 28.8011C25.1638 28.5739 24.5814 28.2188 24.1364 27.7358C23.7008 27.2434 23.4261 26.642 23.3125 25.9318H23.142C22.9242 26.5 22.5123 27.0208 21.9062 27.4943C21.3097 27.9583 20.571 28.3229 19.6903 28.5881C18.8097 28.8437 17.8295 28.9479 16.75 28.9006C15.5947 28.8437 14.5246 28.5786 13.5398 28.1051C12.5644 27.6222 11.7121 26.9498 10.983 26.0881C10.2633 25.2169 9.70455 24.1657 9.30682 22.9347C8.90909 21.7036 8.71023 20.3068 8.71023 18.7443C8.71023 17.2197 8.92803 15.875 9.36364 14.7102C9.79924 13.5455 10.3816 12.5511 11.1108 11.7273C11.8494 10.9034 12.6828 10.2595 13.6108 9.79545C14.5388 9.32197 15.4953 9.01894 16.4801 8.88636C17.5028 8.74432 18.464 8.75852 19.3636 8.92898C20.2633 9.09943 21.0114 9.35985 21.608 9.71023C22.214 10.0606 22.5928 10.4441 22.7443 10.8608H22.9432V9.26989H26.9062V22.7926C26.9157 23.5028 27.0862 24.0758 27.4176 24.5114C27.7585 24.947 28.232 25.1648 28.8381 25.1648C29.5956 25.1648 30.2064 24.8665 30.6705 24.2699C31.1439 23.6638 31.4848 22.7358 31.6932 21.4858C31.911 20.2263 32.0152 18.6165 32.0057 16.6562C32.0152 15.0464 31.8021 13.5881 31.3665 12.2812C30.9403 10.965 30.3343 9.80966 29.5483 8.81534C28.7623 7.82102 27.8201 6.99242 26.7216 6.32955C25.6326 5.6572 24.4205 5.15057 23.0852 4.80966C21.75 4.46875 20.3248 4.2983 18.8097 4.2983C16.4896 4.2983 14.4489 4.65341 12.6875 5.36364C10.9261 6.06439 9.44886 7.06345 8.25568 8.3608C7.07197 9.65814 6.17708 11.197 5.57102 12.9773C4.97443 14.7481 4.67614 16.7083 4.67614 18.858C4.67614 21.1591 4.98864 23.1998 5.61364 24.9801C6.24811 26.7509 7.17614 28.2424 8.39773 29.4545C9.61932 30.6667 11.1297 31.5852 12.929 32.2102C14.7377 32.8352 16.8163 33.1477 19.1648 33.1477C20.2443 33.1477 21.3002 33.0625 22.3324 32.892C23.3646 32.7216 24.2926 32.5227 25.1165 32.2955C25.9403 32.0682 26.5748 31.8693 27.0199 31.6989L28.2273 35.3068C27.6402 35.6098 26.8447 35.9034 25.8409 36.1875C24.8466 36.4716 23.7481 36.7036 22.5455 36.8835C21.3523 37.0634 20.1449 37.1534 18.9233 37.1534ZM17.929 24.8239C19.1316 24.8239 20.0928 24.5919 20.8125 24.1278C21.5322 23.6544 22.0483 22.9536 22.3608 22.0256C22.6733 21.0975 22.8248 19.9422 22.8153 18.5597C22.8153 17.2718 22.6544 16.2159 22.3324 15.392C22.0104 14.5682 21.4943 13.9574 20.7841 13.5597C20.0739 13.1619 19.1316 12.9631 17.9574 12.9631C16.8968 12.9631 15.9924 13.2045 15.2443 13.6875C14.5057 14.1705 13.9375 14.8381 13.5398 15.6903C13.1515 16.5331 12.9574 17.4943 12.9574 18.5739C12.9574 19.6534 13.1136 20.6714 13.4261 21.6278C13.7481 22.5748 14.2689 23.3466 14.9886 23.9432C15.7178 24.5303 16.6979 24.8239 17.929 24.8239Z" fill="#FFF700"/>
</svg>
