<svg width="22" height="22" viewBox="0 0 22 22" fill="none" xmlns="http://www.w3.org/2000/svg">
<path fill-rule="evenodd" clip-rule="evenodd" d="M11 0C10.4477 0 10 0.447715 10 1V3C10 3.55228 10.4477 4 11 4C11.5523 4 12 3.55228 12 3V1C12 0.447715 11.5523 0 11 0ZM11 18C10.4477 18 10 18.4477 10 19V21C10 21.5523 10.4477 22 11 22C11.5523 22 12 21.5523 12 21V19C12 18.4477 11.5523 18 11 18ZM19 12C18.4477 12 18 11.5523 18 11C18 10.4477 18.4477 10 19 10H21C21.5523 10 22 10.4477 22 11C22 11.5523 21.5523 12 21 12H19ZM0 11C0 11.5523 0.447715 12 1 12H3C3.55228 12 4 11.5523 4 11C4 10.4477 3.55228 10 3 10H1C0.447715 10 0 10.4477 0 11ZM5 11C5 7.68629 7.68629 5 11 5C14.3137 5 17 7.68629 17 11C17 14.3137 14.3137 17 11 17C7.68629 17 5 14.3137 5 11ZM3.22184 4.63604C2.83131 4.24551 2.83131 3.61235 3.22184 3.22183C3.61236 2.8313 4.24553 2.8313 4.63605 3.22183L6.05027 4.63604C6.44079 5.02656 6.44079 5.65973 6.05027 6.05025C5.65974 6.44078 5.02658 6.44078 4.63605 6.05025L3.22184 4.63604ZM15.9498 17.364C15.5592 16.9734 15.5592 16.3403 15.9498 15.9497C16.3403 15.5592 16.9734 15.5592 17.364 15.9497L18.7782 17.364C19.1687 17.7545 19.1687 18.3876 18.7782 18.7782C18.3877 19.1687 17.7545 19.1687 17.364 18.7782L15.9498 17.364ZM15.9498 6.05025C16.3403 6.44078 16.9734 6.44078 17.364 6.05025L18.7782 4.63604C19.1687 4.24552 19.1687 3.61235 18.7782 3.22183C18.3877 2.8313 17.7545 2.8313 17.364 3.22183L15.9498 4.63604C15.5592 5.02656 15.5592 5.65973 15.9498 6.05025ZM4.63605 18.7782C4.24553 19.1687 3.61236 19.1687 3.22184 18.7782C2.83131 18.3876 2.83131 17.7545 3.22184 17.364L4.63605 15.9497C5.02658 15.5592 5.65974 15.5592 6.05027 15.9497C6.44079 16.3403 6.44079 16.9734 6.05027 17.364L4.63605 18.7782Z" fill="#FFAC2F"/>
</svg>
