<svg width="114" height="17" viewBox="0 0 114 17" fill="none" xmlns="http://www.w3.org/2000/svg">
<path d="M7.1733 1.45455H9.78693V11.6818C9.7822 12.6193 9.58333 13.4266 9.19034 14.1037C8.79735 14.776 8.24811 15.2945 7.54261 15.6591C6.84186 16.0189 6.02509 16.1989 5.09233 16.1989C4.24006 16.1989 3.47301 16.0473 2.79119 15.7443C2.11411 15.4366 1.5767 14.982 1.17898 14.3807C0.78125 13.7794 0.582386 13.0312 0.582386 12.1364H3.20312C3.20786 12.5294 3.29309 12.8679 3.45881 13.152C3.62926 13.4361 3.86364 13.6539 4.16193 13.8054C4.46023 13.9569 4.8035 14.0327 5.19176 14.0327C5.61316 14.0327 5.97064 13.9451 6.2642 13.7699C6.55777 13.59 6.7803 13.3248 6.93182 12.9744C7.08807 12.6241 7.16856 12.1932 7.1733 11.6818V1.45455ZM14.6712 16.2202C13.9799 16.2202 13.3572 16.0971 12.8033 15.8509C12.254 15.5999 11.8184 15.2306 11.4964 14.7429C11.1792 14.2552 11.0206 13.6539 11.0206 12.9389C11.0206 12.3234 11.1342 11.8144 11.3615 11.4119C11.5888 11.0095 11.8989 10.6875 12.2919 10.446C12.6849 10.2045 13.1276 10.0223 13.62 9.89915C14.1172 9.77131 14.6309 9.67898 15.1612 9.62216C15.8004 9.55587 16.3189 9.49669 16.7166 9.4446C17.1143 9.38778 17.4032 9.30256 17.5831 9.18892C17.7678 9.07055 17.8601 8.88826 17.8601 8.64205V8.59943C17.8601 8.06439 17.7015 7.65009 17.3842 7.35653C17.067 7.06297 16.6101 6.91619 16.0135 6.91619C15.3838 6.91619 14.8842 7.0535 14.5149 7.32812C14.1503 7.60275 13.9041 7.92708 13.7763 8.30114L11.3757 7.96023C11.5651 7.29735 11.8776 6.74337 12.3132 6.2983C12.7488 5.84848 13.2815 5.51231 13.9112 5.28977C14.541 5.0625 15.237 4.94886 15.9993 4.94886C16.5249 4.94886 17.0481 5.01042 17.5689 5.13352C18.0897 5.25663 18.5656 5.46023 18.9964 5.74432C19.4273 6.02367 19.773 6.40483 20.0334 6.88778C20.2985 7.37074 20.4311 7.97443 20.4311 8.69886V16H17.9595V14.5014H17.8743C17.718 14.8045 17.4979 15.0885 17.2138 15.3537C16.9344 15.6141 16.5817 15.8248 16.1555 15.9858C15.7341 16.142 15.2393 16.2202 14.6712 16.2202ZM15.3388 14.331C15.8549 14.331 16.3023 14.2292 16.6811 14.0256C17.0599 13.8172 17.3511 13.5426 17.5547 13.2017C17.763 12.8608 17.8672 12.4891 17.8672 12.0866V10.8011C17.7867 10.8674 17.6494 10.929 17.4553 10.9858C17.2659 11.0426 17.0528 11.0923 16.8161 11.1349C16.5793 11.1776 16.3449 11.2154 16.1129 11.2486C15.8809 11.2817 15.6797 11.3101 15.5092 11.3338C15.1257 11.3859 14.7824 11.4711 14.4794 11.5895C14.1764 11.7079 13.9373 11.8736 13.7621 12.0866C13.5869 12.295 13.4993 12.5649 13.4993 12.8963C13.4993 13.3698 13.6721 13.7273 14.0178 13.9688C14.3634 14.2102 14.8037 14.331 15.3388 14.331ZM26.7749 16.2131C25.6858 16.2131 24.7507 15.974 23.9695 15.4957C23.1929 15.0175 22.594 14.357 22.1726 13.5142C21.7559 12.6667 21.5476 11.6913 21.5476 10.5881C21.5476 9.48011 21.7607 8.50237 22.1868 7.65483C22.6129 6.80256 23.2143 6.13968 23.9908 5.66619C24.772 5.18797 25.6953 4.94886 26.7607 4.94886C27.6461 4.94886 28.4297 5.11222 29.1115 5.43892C29.7981 5.76089 30.3449 6.2178 30.7521 6.80966C31.1593 7.39678 31.3913 8.08333 31.4482 8.86932H28.9908C28.8913 8.34375 28.6546 7.90578 28.2805 7.5554C27.9112 7.20028 27.4164 7.02273 26.7962 7.02273C26.2706 7.02273 25.8089 7.16477 25.4112 7.44886C25.0135 7.72822 24.7034 8.13068 24.4808 8.65625C24.263 9.18182 24.1541 9.81155 24.1541 10.5455C24.1541 11.2888 24.263 11.928 24.4808 12.4631C24.6986 12.9934 25.004 13.4029 25.397 13.6918C25.7947 13.9759 26.2611 14.1179 26.7962 14.1179C27.175 14.1179 27.5135 14.0469 27.8118 13.9048C28.1148 13.758 28.3681 13.5473 28.5717 13.2727C28.7753 12.9981 28.915 12.6643 28.9908 12.2713H31.4482C31.3866 13.0431 31.1593 13.7273 30.7663 14.3239C30.3733 14.9157 29.8383 15.3797 29.1612 15.7159C28.4841 16.0473 27.6887 16.2131 26.7749 16.2131ZM37.3178 16.2131C36.2525 16.2131 35.3292 15.9787 34.5479 15.5099C33.7667 15.0412 33.1606 14.3854 32.7298 13.5426C32.3036 12.6998 32.0906 11.715 32.0906 10.5881C32.0906 9.46117 32.3036 8.47396 32.7298 7.62642C33.1606 6.77888 33.7667 6.12074 34.5479 5.65199C35.3292 5.18324 36.2525 4.94886 37.3178 4.94886C38.3832 4.94886 39.3065 5.18324 40.0877 5.65199C40.869 6.12074 41.4727 6.77888 41.8988 7.62642C42.3297 8.47396 42.5451 9.46117 42.5451 10.5881C42.5451 11.715 42.3297 12.6998 41.8988 13.5426C41.4727 14.3854 40.869 15.0412 40.0877 15.5099C39.3065 15.9787 38.3832 16.2131 37.3178 16.2131ZM37.332 14.1534C37.9097 14.1534 38.3926 13.9948 38.7809 13.6776C39.1692 13.3556 39.458 12.9247 39.6474 12.3849C39.8415 11.8452 39.9386 11.2438 39.9386 10.581C39.9386 9.91335 39.8415 9.30966 39.6474 8.76989C39.458 8.22538 39.1692 7.79214 38.7809 7.47017C38.3926 7.1482 37.9097 6.98722 37.332 6.98722C36.7402 6.98722 36.2478 7.1482 35.8548 7.47017C35.4665 7.79214 35.1753 8.22538 34.9812 8.76989C34.7918 9.30966 34.6971 9.91335 34.6971 10.581C34.6971 11.2438 34.7918 11.8452 34.9812 12.3849C35.1753 12.9247 35.4665 13.3556 35.8548 13.6776C36.2478 13.9948 36.7402 14.1534 37.332 14.1534ZM36.3306 3.65625L37.9215 0.410511H40.4357L38.2553 3.65625H36.3306ZM47.8018 1.45455H51.0263L55.3445 11.9943H55.5149L59.8331 1.45455H63.0575V16H60.5291V6.0071H60.3942L56.3743 15.9574H54.4851L50.4652 5.9858H50.3303V16H47.8018V1.45455ZM67.9524 16.2202C67.2611 16.2202 66.6385 16.0971 66.0845 15.8509C65.5353 15.5999 65.0997 15.2306 64.7777 14.7429C64.4605 14.2552 64.3018 13.6539 64.3018 12.9389C64.3018 12.3234 64.4155 11.8144 64.6428 11.4119C64.87 11.0095 65.1802 10.6875 65.5732 10.446C65.9661 10.2045 66.4089 10.0223 66.9013 9.89915C67.3984 9.77131 67.9122 9.67898 68.4425 9.62216C69.0817 9.55587 69.6001 9.49669 69.9979 9.4446C70.3956 9.38778 70.6844 9.30256 70.8643 9.18892C71.049 9.07055 71.1413 8.88826 71.1413 8.64205V8.59943C71.1413 8.06439 70.9827 7.65009 70.6655 7.35653C70.3482 7.06297 69.8913 6.91619 69.2947 6.91619C68.665 6.91619 68.1655 7.0535 67.7962 7.32812C67.4316 7.60275 67.1854 7.92708 67.0575 8.30114L64.657 7.96023C64.8464 7.29735 65.1589 6.74337 65.5945 6.2983C66.0301 5.84848 66.5627 5.51231 67.1925 5.28977C67.8222 5.0625 68.5182 4.94886 69.2805 4.94886C69.8061 4.94886 70.3293 5.01042 70.8501 5.13352C71.371 5.25663 71.8468 5.46023 72.2777 5.74432C72.7086 6.02367 73.0542 6.40483 73.3146 6.88778C73.5798 7.37074 73.7124 7.97443 73.7124 8.69886V16H71.2408V14.5014H71.1555C70.9993 14.8045 70.7791 15.0885 70.495 15.3537C70.2157 15.6141 69.8629 15.8248 69.4368 15.9858C69.0154 16.142 68.5206 16.2202 67.9524 16.2202ZM68.62 14.331C69.1361 14.331 69.5836 14.2292 69.9624 14.0256C70.3411 13.8172 70.6323 13.5426 70.8359 13.2017C71.0443 12.8608 71.1484 12.4891 71.1484 12.0866V10.8011C71.0679 10.8674 70.9306 10.929 70.7365 10.9858C70.5471 11.0426 70.334 11.0923 70.0973 11.1349C69.8606 11.1776 69.6262 11.2154 69.3942 11.2486C69.1622 11.2817 68.9609 11.3101 68.7905 11.3338C68.407 11.3859 68.0637 11.4711 67.7607 11.5895C67.4576 11.7079 67.2185 11.8736 67.0433 12.0866C66.8681 12.295 66.7805 12.5649 66.7805 12.8963C66.7805 13.3698 66.9534 13.7273 67.299 13.9688C67.6446 14.2102 68.085 14.331 68.62 14.331ZM75.2976 16V5.09091H77.7905V6.90909H77.9041C78.103 6.27936 78.4439 5.79403 78.9268 5.45312C79.4145 5.10748 79.9709 4.93466 80.5959 4.93466C80.7379 4.93466 80.8965 4.94176 81.0717 4.95597C81.2517 4.96544 81.4008 4.98201 81.5192 5.00568V7.37074C81.4103 7.33286 81.2375 7.29972 81.0007 7.27131C80.7687 7.23816 80.5438 7.22159 80.326 7.22159C79.8572 7.22159 79.4358 7.32339 79.0618 7.52699C78.6925 7.72585 78.4013 8.00284 78.1882 8.35795C77.9751 8.71307 77.8686 9.12263 77.8686 9.58665V16H75.2976ZM88.2607 5.09091V7.07955H81.9893V5.09091H88.2607ZM83.5376 2.47727H86.1087V12.7188C86.1087 13.0644 86.1607 13.3295 86.2649 13.5142C86.3738 13.6941 86.5159 13.8172 86.6911 13.8835C86.8662 13.9498 87.0604 13.983 87.2734 13.983C87.4344 13.983 87.5812 13.9711 87.7138 13.9474C87.8511 13.9238 87.9553 13.9025 88.0263 13.8835L88.4595 15.8935C88.3222 15.9408 88.1257 15.9929 87.87 16.0497C87.6191 16.1065 87.3113 16.1397 86.9467 16.1491C86.3028 16.1681 85.7228 16.071 85.2067 15.858C84.6906 15.6402 84.281 15.304 83.978 14.8494C83.6797 14.3949 83.5329 13.8267 83.5376 13.1449V2.47727ZM89.4109 16V5.09091H91.9819V16H89.4109ZM90.7035 3.54261C90.2963 3.54261 89.9459 3.40767 89.6523 3.13778C89.3588 2.86316 89.212 2.53409 89.212 2.15057C89.212 1.76231 89.3588 1.43324 89.6523 1.16335C89.9459 0.88873 90.2963 0.75142 90.7035 0.75142C91.1154 0.75142 91.4658 0.88873 91.7546 1.16335C92.0482 1.43324 92.195 1.76231 92.195 2.15057C92.195 2.53409 92.0482 2.86316 91.7546 3.13778C91.4658 3.40767 91.1154 3.54261 90.7035 3.54261ZM96.1967 9.60795V16H93.6257V5.09091H96.0831V6.9446H96.2109C96.4619 6.33381 96.862 5.84848 97.4112 5.48864C97.9652 5.12879 98.6494 4.94886 99.4638 4.94886C100.217 4.94886 100.872 5.10985 101.431 5.43182C101.995 5.75379 102.43 6.22017 102.738 6.83097C103.05 7.44176 103.204 8.18276 103.2 9.05398V16H100.629V9.4517C100.629 8.72254 100.439 8.15199 100.06 7.74006C99.6863 7.32812 99.1679 7.12216 98.505 7.12216C98.0552 7.12216 97.6551 7.22159 97.3047 7.42045C96.959 7.61458 96.6868 7.89631 96.4879 8.26562C96.2938 8.63494 96.1967 9.08239 96.1967 9.60795ZM113.435 7.97443L111.092 8.23011C111.025 7.99337 110.909 7.77083 110.744 7.5625C110.583 7.35417 110.365 7.18608 110.09 7.05824C109.816 6.9304 109.479 6.86648 109.082 6.86648C108.547 6.86648 108.097 6.98248 107.732 7.21449C107.372 7.4465 107.195 7.74716 107.2 8.11648C107.195 8.43371 107.311 8.69176 107.548 8.89062C107.789 9.08949 108.187 9.25284 108.741 9.38068L110.602 9.77841C111.634 10.0009 112.401 10.3537 112.903 10.8366C113.409 11.3196 113.665 11.9517 113.67 12.733C113.665 13.4195 113.464 14.0256 113.066 14.5511C112.673 15.072 112.126 15.4792 111.425 15.7727C110.725 16.0663 109.92 16.2131 109.011 16.2131C107.675 16.2131 106.601 15.9337 105.786 15.375C104.972 14.8116 104.487 14.0279 104.33 13.0241L106.837 12.7827C106.951 13.2751 107.192 13.6468 107.562 13.8977C107.931 14.1487 108.412 14.2741 109.004 14.2741C109.614 14.2741 110.104 14.1487 110.474 13.8977C110.848 13.6468 111.035 13.3366 111.035 12.9673C111.035 12.6548 110.914 12.3968 110.673 12.1932C110.436 11.9896 110.067 11.8333 109.565 11.7244L107.704 11.3338C106.657 11.116 105.883 10.7491 105.381 10.233C104.879 9.71212 104.631 9.05398 104.636 8.25852C104.631 7.58617 104.813 7.00379 105.183 6.51136C105.557 6.0142 106.075 5.63068 106.738 5.3608C107.406 5.08617 108.175 4.94886 109.046 4.94886C110.325 4.94886 111.331 5.22112 112.065 5.76562C112.803 6.31013 113.26 7.0464 113.435 7.97443Z" fill="black"/>
</svg>
